<mxfile host="Electron" modified="2024-02-17T10:07:00.734Z" agent="Mozilla/5.0 (Macintosh; Intel Mac OS X 10_15_7) AppleWebKit/537.36 (KHTML, like Gecko) draw.io/23.1.5 Chrome/120.0.6099.109 Electron/28.1.0 Safari/537.36" etag="Qg_yE9cVDHVdnA01ubyy" version="23.1.5" type="device">
  <diagram name="Page-1" id="KenW7vIUKHTiLhVvsAD5">
    <mxGraphModel dx="1482" dy="805" grid="1" gridSize="10" guides="1" tooltips="1" connect="1" arrows="1" fold="1" page="1" pageScale="1" pageWidth="840" pageHeight="540" math="0" shadow="0">
      <root>
        <mxCell id="V_574r8uO0_lqwqY8eq--0" />
        <mxCell id="V_574r8uO0_lqwqY8eq--1" parent="V_574r8uO0_lqwqY8eq--0" />
        <mxCell id="V_574r8uO0_lqwqY8eq--2" value="&lt;b&gt;&lt;font style=&quot;font-size: 14px;&quot;&gt;Organizer&lt;/font&gt;&lt;/b&gt;" style="shape=umlLifeline;perimeter=lifelinePerimeter;whiteSpace=wrap;html=1;container=0;dropTarget=0;collapsible=0;recursiveResize=0;outlineConnect=0;portConstraint=eastwest;newEdgeStyle={&quot;edgeStyle&quot;:&quot;elbowEdgeStyle&quot;,&quot;elbow&quot;:&quot;vertical&quot;,&quot;curved&quot;:0,&quot;rounded&quot;:0};fillColor=#f5f5f5;strokeColor=#666666;fontColor=#333333;" parent="V_574r8uO0_lqwqY8eq--1" vertex="1">
          <mxGeometry x="40" y="40" width="120" height="460" as="geometry" />
        </mxCell>
        <mxCell id="V_574r8uO0_lqwqY8eq--3" value="" style="html=1;points=[];perimeter=orthogonalPerimeter;outlineConnect=0;targetShapes=umlLifeline;portConstraint=eastwest;newEdgeStyle={&quot;edgeStyle&quot;:&quot;elbowEdgeStyle&quot;,&quot;elbow&quot;:&quot;vertical&quot;,&quot;curved&quot;:0,&quot;rounded&quot;:0};fillColor=#f5f5f5;strokeColor=#666666;fontColor=#333333;" parent="V_574r8uO0_lqwqY8eq--2" vertex="1">
          <mxGeometry x="55" y="60" width="10" height="380" as="geometry" />
        </mxCell>
        <mxCell id="V_574r8uO0_lqwqY8eq--4" value="dispatch" style="html=1;verticalAlign=bottom;startArrow=oval;endArrow=block;startSize=8;edgeStyle=elbowEdgeStyle;elbow=vertical;curved=0;rounded=0;" parent="V_574r8uO0_lqwqY8eq--2" edge="1">
          <mxGeometry y="-20" relative="1" as="geometry">
            <mxPoint y="60" as="sourcePoint" />
            <mxPoint x="55" y="60.14285714285711" as="targetPoint" />
            <mxPoint as="offset" />
          </mxGeometry>
        </mxCell>
        <mxCell id="V_574r8uO0_lqwqY8eq--5" value="&lt;font style=&quot;font-size: 14px;&quot;&gt;G: Group&lt;/font&gt;" style="shape=umlLifeline;perimeter=lifelinePerimeter;whiteSpace=wrap;html=1;container=0;dropTarget=0;collapsible=0;recursiveResize=0;outlineConnect=0;portConstraint=eastwest;newEdgeStyle={&quot;edgeStyle&quot;:&quot;elbowEdgeStyle&quot;,&quot;elbow&quot;:&quot;vertical&quot;,&quot;curved&quot;:0,&quot;rounded&quot;:0};fillColor=#dae8fc;strokeColor=#6c8ebf;" parent="V_574r8uO0_lqwqY8eq--1" vertex="1">
          <mxGeometry x="200" y="40" width="120" height="460" as="geometry" />
        </mxCell>
        <mxCell id="V_574r8uO0_lqwqY8eq--6" value="" style="html=1;points=[];perimeter=orthogonalPerimeter;outlineConnect=0;targetShapes=umlLifeline;portConstraint=eastwest;newEdgeStyle={&quot;edgeStyle&quot;:&quot;elbowEdgeStyle&quot;,&quot;elbow&quot;:&quot;vertical&quot;,&quot;curved&quot;:0,&quot;rounded&quot;:0};fillColor=#dae8fc;strokeColor=#6c8ebf;" parent="V_574r8uO0_lqwqY8eq--5" vertex="1">
          <mxGeometry x="55" y="70" width="10" height="360" as="geometry" />
        </mxCell>
        <mxCell id="V_574r8uO0_lqwqY8eq--7" value="&lt;font face=&quot;Courier New&quot;&gt;setup(Window,&lt;br&gt;&amp;nbsp; Participants)&lt;/font&gt;" style="html=1;verticalAlign=bottom;endArrow=block;edgeStyle=elbowEdgeStyle;elbow=horizontal;curved=0;rounded=0;align=left;" parent="V_574r8uO0_lqwqY8eq--1" source="V_574r8uO0_lqwqY8eq--3" target="V_574r8uO0_lqwqY8eq--6" edge="1">
          <mxGeometry x="-0.6667" relative="1" as="geometry">
            <mxPoint x="110" y="120" as="sourcePoint" />
            <Array as="points">
              <mxPoint x="180" y="120" />
            </Array>
            <mxPoint x="240" y="120" as="targetPoint" />
            <mxPoint as="offset" />
          </mxGeometry>
        </mxCell>
        <mxCell id="V_574r8uO0_lqwqY8eq--9" value="&lt;font style=&quot;font-size: 14px;&quot;&gt;D1: Diary&lt;/font&gt;" style="shape=umlLifeline;perimeter=lifelinePerimeter;whiteSpace=wrap;html=1;container=0;dropTarget=0;collapsible=0;recursiveResize=0;outlineConnect=0;portConstraint=eastwest;newEdgeStyle={&quot;edgeStyle&quot;:&quot;elbowEdgeStyle&quot;,&quot;elbow&quot;:&quot;vertical&quot;,&quot;curved&quot;:0,&quot;rounded&quot;:0};fillColor=#d5e8d4;strokeColor=#82b366;" parent="V_574r8uO0_lqwqY8eq--1" vertex="1">
          <mxGeometry x="360" y="40" width="120" height="460" as="geometry" />
        </mxCell>
        <mxCell id="V_574r8uO0_lqwqY8eq--10" value="" style="html=1;points=[];perimeter=orthogonalPerimeter;outlineConnect=0;targetShapes=umlLifeline;portConstraint=eastwest;newEdgeStyle={&quot;edgeStyle&quot;:&quot;elbowEdgeStyle&quot;,&quot;elbow&quot;:&quot;vertical&quot;,&quot;curved&quot;:0,&quot;rounded&quot;:0};fillColor=#d5e8d4;strokeColor=#82b366;" parent="V_574r8uO0_lqwqY8eq--9" vertex="1">
          <mxGeometry x="55" y="80" width="10" height="50" as="geometry" />
        </mxCell>
        <mxCell id="Vd3R-TFm4S1apjZbC-eo-2" value="" style="html=1;points=[];perimeter=orthogonalPerimeter;outlineConnect=0;targetShapes=umlLifeline;portConstraint=eastwest;newEdgeStyle={&quot;edgeStyle&quot;:&quot;elbowEdgeStyle&quot;,&quot;elbow&quot;:&quot;vertical&quot;,&quot;curved&quot;:0,&quot;rounded&quot;:0};fillColor=#d5e8d4;strokeColor=#82b366;" parent="V_574r8uO0_lqwqY8eq--9" vertex="1">
          <mxGeometry x="55" y="290" width="10" height="20" as="geometry" />
        </mxCell>
        <mxCell id="V_574r8uO0_lqwqY8eq--11" value="&lt;font style=&quot;font-size: 14px;&quot;&gt;D2: Diary&lt;/font&gt;" style="shape=umlLifeline;perimeter=lifelinePerimeter;whiteSpace=wrap;html=1;container=0;dropTarget=0;collapsible=0;recursiveResize=0;outlineConnect=0;portConstraint=eastwest;newEdgeStyle={&quot;edgeStyle&quot;:&quot;elbowEdgeStyle&quot;,&quot;elbow&quot;:&quot;vertical&quot;,&quot;curved&quot;:0,&quot;rounded&quot;:0};fillColor=#ffe6cc;strokeColor=#d79b00;" parent="V_574r8uO0_lqwqY8eq--1" vertex="1">
          <mxGeometry x="520" y="40" width="120" height="460" as="geometry" />
        </mxCell>
        <mxCell id="V_574r8uO0_lqwqY8eq--12" value="" style="html=1;points=[];perimeter=orthogonalPerimeter;outlineConnect=0;targetShapes=umlLifeline;portConstraint=eastwest;newEdgeStyle={&quot;edgeStyle&quot;:&quot;elbowEdgeStyle&quot;,&quot;elbow&quot;:&quot;vertical&quot;,&quot;curved&quot;:0,&quot;rounded&quot;:0};fillColor=#ffe6cc;strokeColor=#d79b00;" parent="V_574r8uO0_lqwqY8eq--11" vertex="1">
          <mxGeometry x="55" y="140" width="10" height="50" as="geometry" />
        </mxCell>
        <mxCell id="6cWRWlTVcQfMaOi_MTbY-3" value="" style="html=1;points=[];perimeter=orthogonalPerimeter;outlineConnect=0;targetShapes=umlLifeline;portConstraint=eastwest;newEdgeStyle={&quot;edgeStyle&quot;:&quot;elbowEdgeStyle&quot;,&quot;elbow&quot;:&quot;vertical&quot;,&quot;curved&quot;:0,&quot;rounded&quot;:0};fillColor=#ffe6cc;strokeColor=#d79b00;" parent="V_574r8uO0_lqwqY8eq--11" vertex="1">
          <mxGeometry x="55" y="320" width="10" height="20" as="geometry" />
        </mxCell>
        <mxCell id="V_574r8uO0_lqwqY8eq--13" value="&lt;font style=&quot;font-size: 14px;&quot;&gt;D3: Diary&lt;/font&gt;" style="shape=umlLifeline;perimeter=lifelinePerimeter;whiteSpace=wrap;html=1;container=0;dropTarget=0;collapsible=0;recursiveResize=0;outlineConnect=0;portConstraint=eastwest;newEdgeStyle={&quot;edgeStyle&quot;:&quot;elbowEdgeStyle&quot;,&quot;elbow&quot;:&quot;vertical&quot;,&quot;curved&quot;:0,&quot;rounded&quot;:0};fillColor=#fff2cc;strokeColor=#d6b656;" parent="V_574r8uO0_lqwqY8eq--1" vertex="1">
          <mxGeometry x="680" y="40" width="120" height="460" as="geometry" />
        </mxCell>
        <mxCell id="V_574r8uO0_lqwqY8eq--14" value="" style="html=1;points=[];perimeter=orthogonalPerimeter;outlineConnect=0;targetShapes=umlLifeline;portConstraint=eastwest;newEdgeStyle={&quot;edgeStyle&quot;:&quot;elbowEdgeStyle&quot;,&quot;elbow&quot;:&quot;vertical&quot;,&quot;curved&quot;:0,&quot;rounded&quot;:0};fillColor=#fff2cc;strokeColor=#d6b656;" parent="V_574r8uO0_lqwqY8eq--13" vertex="1">
          <mxGeometry x="55" y="200" width="10" height="50" as="geometry" />
        </mxCell>
        <mxCell id="6cWRWlTVcQfMaOi_MTbY-5" value="" style="html=1;points=[];perimeter=orthogonalPerimeter;outlineConnect=0;targetShapes=umlLifeline;portConstraint=eastwest;newEdgeStyle={&quot;edgeStyle&quot;:&quot;elbowEdgeStyle&quot;,&quot;elbow&quot;:&quot;vertical&quot;,&quot;curved&quot;:0,&quot;rounded&quot;:0};fillColor=#fff2cc;strokeColor=#d6b656;" parent="V_574r8uO0_lqwqY8eq--13" vertex="1">
          <mxGeometry x="55" y="350" width="10" height="20" as="geometry" />
        </mxCell>
        <mxCell id="V_574r8uO0_lqwqY8eq--17" value="&lt;font face=&quot;Courier New&quot;&gt;getAvailableDates(&lt;br&gt;&amp;nbsp; W1,&amp;nbsp;P1)&lt;/font&gt;" style="html=1;verticalAlign=bottom;endArrow=block;edgeStyle=elbowEdgeStyle;elbow=vertical;curved=0;rounded=0;align=left;" parent="V_574r8uO0_lqwqY8eq--1" source="V_574r8uO0_lqwqY8eq--6" target="V_574r8uO0_lqwqY8eq--10" edge="1">
          <mxGeometry x="-0.8" relative="1" as="geometry">
            <mxPoint x="290" y="130" as="sourcePoint" />
            <Array as="points">
              <mxPoint x="335" y="130" />
            </Array>
            <mxPoint x="400" y="130" as="targetPoint" />
            <mxPoint as="offset" />
          </mxGeometry>
        </mxCell>
        <mxCell id="V_574r8uO0_lqwqY8eq--18" value="&lt;font face=&quot;Courier New&quot;&gt;P1&lt;/font&gt; available dates" style="html=1;verticalAlign=bottom;endArrow=open;dashed=1;endSize=8;edgeStyle=elbowEdgeStyle;elbow=vertical;curved=0;rounded=0;" parent="V_574r8uO0_lqwqY8eq--1" source="V_574r8uO0_lqwqY8eq--10" target="V_574r8uO0_lqwqY8eq--6" edge="1">
          <mxGeometry relative="1" as="geometry">
            <mxPoint x="280" y="160" as="targetPoint" />
            <Array as="points">
              <mxPoint x="360" y="160" />
              <mxPoint x="345" y="170" />
            </Array>
            <mxPoint x="400" y="160" as="sourcePoint" />
          </mxGeometry>
        </mxCell>
        <mxCell id="g2ztBIAL7-nyoMyFBQik-2" value="&lt;font face=&quot;Courier New&quot;&gt;getAvailableDates(W2,&amp;nbsp;P2)&lt;/font&gt;" style="html=1;verticalAlign=bottom;endArrow=block;edgeStyle=elbowEdgeStyle;elbow=vertical;curved=0;rounded=0;align=center;" parent="V_574r8uO0_lqwqY8eq--1" source="V_574r8uO0_lqwqY8eq--6" target="V_574r8uO0_lqwqY8eq--12" edge="1">
          <mxGeometry relative="1" as="geometry">
            <mxPoint x="280" y="190" as="sourcePoint" />
            <Array as="points">
              <mxPoint x="385" y="190" />
            </Array>
            <mxPoint x="550" y="190" as="targetPoint" />
            <mxPoint as="offset" />
          </mxGeometry>
        </mxCell>
        <mxCell id="g2ztBIAL7-nyoMyFBQik-3" value="&lt;font face=&quot;Courier New&quot;&gt;P2&lt;/font&gt;&amp;nbsp;available dates" style="html=1;verticalAlign=bottom;endArrow=open;dashed=1;endSize=8;edgeStyle=elbowEdgeStyle;elbow=vertical;curved=0;rounded=0;" parent="V_574r8uO0_lqwqY8eq--1" source="V_574r8uO0_lqwqY8eq--12" target="V_574r8uO0_lqwqY8eq--6" edge="1">
          <mxGeometry relative="1" as="geometry">
            <mxPoint x="280" y="220" as="targetPoint" />
            <Array as="points">
              <mxPoint x="475" y="219.76" />
              <mxPoint x="460" y="229.76" />
            </Array>
            <mxPoint x="570" y="219.76" as="sourcePoint" />
          </mxGeometry>
        </mxCell>
        <mxCell id="Vd3R-TFm4S1apjZbC-eo-0" value="&lt;font face=&quot;Courier New&quot;&gt;getAvailableDates(W3,&amp;nbsp;P3)&lt;/font&gt;" style="html=1;verticalAlign=bottom;endArrow=block;edgeStyle=elbowEdgeStyle;elbow=vertical;curved=0;rounded=0;align=center;" parent="V_574r8uO0_lqwqY8eq--1" source="V_574r8uO0_lqwqY8eq--6" target="V_574r8uO0_lqwqY8eq--14" edge="1">
          <mxGeometry relative="1" as="geometry">
            <mxPoint x="280" y="250" as="sourcePoint" />
            <Array as="points">
              <mxPoint x="395" y="250" />
            </Array>
            <mxPoint x="720" y="250" as="targetPoint" />
            <mxPoint as="offset" />
          </mxGeometry>
        </mxCell>
        <mxCell id="Vd3R-TFm4S1apjZbC-eo-1" value="&lt;font face=&quot;Courier New&quot;&gt;P3&lt;/font&gt;&amp;nbsp;available dates" style="html=1;verticalAlign=bottom;endArrow=open;dashed=1;endSize=8;edgeStyle=elbowEdgeStyle;elbow=vertical;curved=0;rounded=0;" parent="V_574r8uO0_lqwqY8eq--1" source="V_574r8uO0_lqwqY8eq--14" target="V_574r8uO0_lqwqY8eq--6" edge="1">
          <mxGeometry relative="1" as="geometry">
            <mxPoint x="280" y="280" as="targetPoint" />
            <Array as="points">
              <mxPoint x="650" y="280" />
              <mxPoint x="635" y="290" />
            </Array>
            <mxPoint x="710" y="280" as="sourcePoint" />
          </mxGeometry>
        </mxCell>
        <mxCell id="6cWRWlTVcQfMaOi_MTbY-0" value="&lt;font face=&quot;Courier New&quot;&gt;reserve(date)&lt;/font&gt;" style="html=1;verticalAlign=bottom;endArrow=block;edgeStyle=elbowEdgeStyle;elbow=vertical;curved=0;rounded=0;align=center;" parent="V_574r8uO0_lqwqY8eq--1" source="V_574r8uO0_lqwqY8eq--6" target="Vd3R-TFm4S1apjZbC-eo-2" edge="1">
          <mxGeometry relative="1" as="geometry">
            <mxPoint x="280" y="340" as="sourcePoint" />
            <Array as="points">
              <mxPoint x="370" y="340" />
            </Array>
            <mxPoint x="400" y="340" as="targetPoint" />
            <mxPoint as="offset" />
          </mxGeometry>
        </mxCell>
        <mxCell id="6cWRWlTVcQfMaOi_MTbY-2" value="&lt;font face=&quot;Courier New&quot;&gt;reserve(date)&lt;/font&gt;" style="html=1;verticalAlign=bottom;endArrow=block;edgeStyle=elbowEdgeStyle;elbow=vertical;curved=0;rounded=0;align=center;" parent="V_574r8uO0_lqwqY8eq--1" source="V_574r8uO0_lqwqY8eq--6" target="6cWRWlTVcQfMaOi_MTbY-3" edge="1">
          <mxGeometry relative="1" as="geometry">
            <mxPoint x="290" y="370" as="sourcePoint" />
            <Array as="points">
              <mxPoint x="395" y="370" />
            </Array>
            <mxPoint x="440" y="370" as="targetPoint" />
            <mxPoint as="offset" />
          </mxGeometry>
        </mxCell>
        <mxCell id="6cWRWlTVcQfMaOi_MTbY-4" value="&lt;font face=&quot;Courier New&quot;&gt;reserve(date)&lt;/font&gt;" style="html=1;verticalAlign=bottom;endArrow=block;edgeStyle=elbowEdgeStyle;elbow=vertical;curved=0;rounded=0;align=center;" parent="V_574r8uO0_lqwqY8eq--1" source="V_574r8uO0_lqwqY8eq--6" target="6cWRWlTVcQfMaOi_MTbY-5" edge="1">
          <mxGeometry relative="1" as="geometry">
            <mxPoint x="270" y="400" as="sourcePoint" />
            <Array as="points">
              <mxPoint x="375" y="400" />
            </Array>
            <mxPoint x="420" y="400" as="targetPoint" />
            <mxPoint as="offset" />
          </mxGeometry>
        </mxCell>
        <mxCell id="6cWRWlTVcQfMaOi_MTbY-8" value="&lt;font face=&quot;Courier New&quot;&gt;report(window)&lt;/font&gt;" style="html=1;verticalAlign=bottom;endArrow=block;edgeStyle=elbowEdgeStyle;elbow=vertical;curved=0;rounded=0;align=center;" parent="V_574r8uO0_lqwqY8eq--1" source="V_574r8uO0_lqwqY8eq--6" target="V_574r8uO0_lqwqY8eq--3" edge="1">
          <mxGeometry relative="1" as="geometry">
            <mxPoint x="250" y="390" as="sourcePoint" />
            <Array as="points">
              <mxPoint x="190" y="390" />
            </Array>
            <mxPoint x="120" y="390" as="targetPoint" />
            <mxPoint as="offset" />
          </mxGeometry>
        </mxCell>
        <mxCell id="6cWRWlTVcQfMaOi_MTbY-9" value="&lt;font face=&quot;Courier New&quot;&gt;report(window)&lt;/font&gt;" style="html=1;verticalAlign=bottom;endArrow=block;edgeStyle=elbowEdgeStyle;elbow=vertical;curved=0;rounded=0;align=center;" parent="V_574r8uO0_lqwqY8eq--1" source="V_574r8uO0_lqwqY8eq--6" target="V_574r8uO0_lqwqY8eq--3" edge="1">
          <mxGeometry relative="1" as="geometry">
            <mxPoint x="240" y="460" as="sourcePoint" />
            <Array as="points">
              <mxPoint x="205" y="460" />
            </Array>
            <mxPoint x="110" y="460" as="targetPoint" />
            <mxPoint as="offset" />
          </mxGeometry>
        </mxCell>
        <mxCell id="Q1ht3httsKG5jgjsM5pC-1" value="" style="group" parent="V_574r8uO0_lqwqY8eq--1" vertex="1" connectable="0">
          <mxGeometry x="40" y="310" width="760.0000000000002" height="180" as="geometry" />
        </mxCell>
        <mxCell id="rxPH7TsIaBoU2aqQJ6qY-0" value="[No dates available]" style="text;html=1;align=center;verticalAlign=middle;resizable=0;points=[];autosize=1;strokeColor=none;fillColor=none;" parent="Q1ht3httsKG5jgjsM5pC-1" vertex="1">
          <mxGeometry y="110" width="130" height="30" as="geometry" />
        </mxCell>
        <mxCell id="YbO_gCEAp-Fio8fJwI9r-3" value="" style="endArrow=none;dashed=1;html=1;rounded=0;entryX=1;entryY=0.5;entryDx=0;entryDy=0;exitX=0;exitY=0.5;exitDx=0;exitDy=0;" parent="Q1ht3httsKG5jgjsM5pC-1" edge="1">
          <mxGeometry width="50" height="50" relative="1" as="geometry">
            <mxPoint y="110" as="sourcePoint" />
            <mxPoint x="760.0000000000002" y="110" as="targetPoint" />
          </mxGeometry>
        </mxCell>
        <mxCell id="Q1ht3httsKG5jgjsM5pC-0" value="alt" style="shape=umlFrame;whiteSpace=wrap;html=1;rounded=1;shadow=0;comic=0;labelBackgroundColor=none;strokeWidth=1;fontFamily=Verdana;fontSize=12;align=center;" parent="Q1ht3httsKG5jgjsM5pC-1" vertex="1">
          <mxGeometry width="760" height="180" as="geometry" />
        </mxCell>
      </root>
    </mxGraphModel>
  </diagram>
</mxfile>
